<?xml version="1.0" encoding="UTF-8" standalone="no"?>
<svg
   width="105"
   height="30"
   viewBox="0 0 105 30"
   fill="none"
   version="1.1"
   id="svg59"
   sodipodi:docname="exchange-logo.svg"
   inkscape:version="1.1.2 (0a00cf5339, 2022-02-04, custom)"
   xmlns:inkscape="http://www.inkscape.org/namespaces/inkscape"
   xmlns:sodipodi="http://sodipodi.sourceforge.net/DTD/sodipodi-0.dtd"
   xmlns="http://www.w3.org/2000/svg"
   xmlns:svg="http://www.w3.org/2000/svg">
  <sodipodi:namedview
     id="namedview61"
     pagecolor="#ffffff"
     bordercolor="#666666"
     borderopacity="1.0"
     inkscape:pageshadow="2"
     inkscape:pageopacity="0.0"
     inkscape:pagecheckerboard="0"
     showgrid="false"
     inkscape:zoom="10.07619"
     inkscape:cx="98.251418"
     inkscape:cy="16.72259"
     inkscape:window-width="1271"
     inkscape:window-height="1082"
     inkscape:window-x="492"
     inkscape:window-y="157"
     inkscape:window-maximized="0"
     inkscape:current-layer="g52" />
  <g
     clip-path="url(#clip0_937_1898)"
     id="g52">
    <path
       d="M9.74512 11.6095C10.6819 12.1708 11.3997 12.9592 11.8984 13.979C12.3972 14.9989 12.6444 16.1695 12.6444 17.4885C12.6444 17.9231 12.627 18.2747 12.5945 18.5412H2.71274C2.84502 19.7947 3.26787 20.7469 3.9813 21.3999C4.69473 22.0529 5.59031 22.3783 6.67022 22.3783C7.63302 22.3783 8.42885 22.1773 9.05988 21.7755C9.69091 21.3737 10.1875 20.7644 10.554 19.9454L12.4709 21.6248C11.8897 22.6119 11.0809 23.3544 10.0444 23.8567C9.00784 24.359 7.86505 24.608 6.62034 24.608C5.29323 24.608 4.13093 24.3197 3.13559 23.7432C2.14026 23.1666 1.36828 22.3564 0.819657 21.3125C0.271031 20.2686 -0.00219727 19.0762 -0.00219727 17.7397C-0.00219727 16.4031 0.275368 15.2282 0.832668 14.1669C1.3878 13.1055 2.15544 12.2734 3.13559 11.6729C4.11575 11.0723 5.21734 10.7709 6.44686 10.7709C7.67639 10.7709 8.80834 11.0504 9.74512 11.6117V11.6095ZM9.85788 16.5866C9.85788 15.4837 9.54779 14.6102 8.92544 13.9659C8.30308 13.3217 7.46171 13.0007 6.39916 13.0007C5.4537 13.0007 4.64919 13.3064 3.98564 13.9157C3.32208 14.5272 2.90574 15.416 2.74093 16.5866H9.86005H9.85788Z"
       fill="white"
       id="path2"
       style="fill:#2e3195;fill-opacity:1" />
    <path
       d="M21.3466 22.2756L20.8955 21.6576C21.0343 21.876 21.1861 22.0812 21.3466 22.2756Z"
       fill="white"
       id="path4" />
    <path
       d="M49.591 18.2529C50.3391 17.5934 51.3843 17.1369 52.7287 16.8858C54.173 16.6346 55.177 16.4381 55.7408 16.2961C56.3046 16.1542 56.6862 15.9795 56.8857 15.7698C57.0852 15.5602 57.185 15.2391 57.185 14.8045C57.185 14.1537 56.9183 13.6646 56.3891 13.3392C55.8579 13.0138 55.1683 12.85 54.3226 12.85C53.3598 12.85 52.5748 13.1142 51.9698 13.6405C51.3626 14.1669 51.0612 14.9072 51.0612 15.8594L48.7214 14.9574C48.8385 14.1385 49.1529 13.4112 49.6668 12.7757C50.1808 12.1402 50.84 11.6466 51.6467 11.2972C52.4512 10.9456 53.3424 10.7709 54.3226 10.7709C56.0162 10.7709 57.3389 11.1553 58.2931 11.924C59.2472 12.6927 59.7243 13.789 59.7243 15.2086V21.7275L60.1471 24.2346H57.8811L57.3086 22.5792C56.8445 23.2474 56.2178 23.7541 55.4285 24.097C54.6392 24.4398 53.7805 24.6102 52.8523 24.6102C51.5578 24.6102 50.5039 24.2673 49.6907 23.5816C48.8775 22.8958 48.4698 21.9852 48.4698 20.8495C48.4698 19.7794 48.8428 18.9146 49.591 18.2551V18.2529ZM51.7941 22.0507C52.1845 22.4023 52.7287 22.577 53.4248 22.577C54.6023 22.577 55.5239 22.2429 56.1875 21.5746C56.851 20.9063 57.1828 20.0459 57.1828 18.9932V17.7397C57.0158 17.8904 56.7469 18.0127 56.374 18.1022C56.001 18.1939 55.2745 18.3403 54.1968 18.5412L53.4508 18.6919C52.7374 18.8425 52.1845 19.0719 51.7963 19.382C51.406 19.6921 51.2108 20.1376 51.2108 20.7229C51.2108 21.2579 51.406 21.7012 51.7963 22.0507H51.7941Z"
       fill="white"
       id="path6"
       style="fill:#2e3192;fill-opacity:1" />
    <path
       d="M65.2756 11.1968V13.0007C66.156 11.5134 67.5568 10.7687 69.4824 10.7687C71.0416 10.7687 72.2451 11.2535 73.0929 12.2232C73.9387 13.1928 74.3615 14.5556 74.3615 16.3092V24.2324H71.7723V16.687C71.7723 15.5012 71.5273 14.6145 71.0372 14.0293C70.5471 13.444 69.8055 13.1513 68.8102 13.1513C67.6978 13.1513 66.8304 13.5117 66.208 14.2302C65.5857 14.9487 65.2756 15.9511 65.2756 17.2396V24.2345H62.6864V11.199H65.2756V11.1968Z"
       fill="white"
       id="path8"
       style="fill:#2e3192;fill-opacity:1" />
    <path
       d="M90.07 11.1968V23.907C90.07 25.143 89.7925 26.2219 89.2373 27.1413C88.68 28.0607 87.8885 28.7661 86.8607 29.2597C85.8306 29.7532 84.6206 30 83.2263 30C81.5674 30 80.1904 29.679 79.0932 29.0347C77.9981 28.3905 77.2023 27.4514 76.7035 26.2153L78.9197 24.7106C79.2515 25.713 79.7784 26.473 80.5005 26.9928C81.2226 27.5104 82.1399 27.7703 83.2523 27.7703C84.5643 27.7703 85.5964 27.4077 86.3511 26.6805C87.1057 25.9533 87.483 24.9705 87.483 23.7344V21.9546C86.9517 22.5901 86.3077 23.088 85.5531 23.4462C84.7984 23.8065 83.9549 23.9856 83.0268 23.9856C81.7496 23.9856 80.6241 23.6973 79.6526 23.1208C78.6812 22.5442 77.9309 21.7537 77.3996 20.7513C76.8683 19.7489 76.6038 18.6373 76.6038 17.4165C76.6038 16.1957 76.8683 15.0557 77.3996 14.0445C77.9309 13.0334 78.6812 12.2363 79.6526 11.651C80.6241 11.0657 81.7474 10.7731 83.0268 10.7731C83.9549 10.7731 84.7984 10.9522 85.5531 11.3125C86.3077 11.6729 86.9517 12.1686 87.483 12.8041V11.199H90.0722L90.07 11.1968ZM79.7762 19.5698C80.1167 20.2053 80.6068 20.7054 81.2443 21.0745C81.884 21.4414 82.6256 21.627 83.4713 21.627C84.317 21.627 85.0023 21.4435 85.6246 21.0745C86.247 20.7076 86.7284 20.2009 87.0688 19.5567C87.4093 18.9124 87.5784 18.1983 87.5784 17.4121C87.5784 16.1433 87.2011 15.1103 86.4465 14.3154C85.6919 13.5226 84.6987 13.1251 83.4713 13.1251C82.244 13.1251 81.1727 13.527 80.4094 14.3285C79.6461 15.1299 79.2645 16.1585 79.2645 17.4121C79.2645 18.2136 79.4336 18.9343 79.7741 19.5676L79.7762 19.5698Z"
       fill="white"
       id="path10"
       style="fill:#2e3192;fill-opacity:1" />
    <path
       d="M102.099 11.6095C103.035 12.1708 103.753 12.9592 104.252 13.979C104.751 14.9989 104.998 16.1695 104.998 17.4885C104.998 17.9231 104.98 18.2747 104.948 18.5412H95.0661C95.1984 19.7947 95.6213 20.7469 96.3347 21.3999C97.0481 22.0529 97.9437 22.3783 99.0236 22.3783C99.9864 22.3783 100.782 22.1773 101.413 21.7755C102.044 21.3737 102.541 20.7644 102.907 19.9454L104.824 21.6248C104.243 22.6119 103.434 23.3544 102.398 23.8567C101.361 24.359 100.218 24.608 98.9737 24.608C97.6466 24.608 96.4843 24.3197 95.489 23.7432C94.4937 23.1666 93.7217 22.3564 93.1731 21.3125C92.6244 20.2686 92.3512 19.0762 92.3512 17.7397C92.3512 16.4031 92.6288 15.2282 93.1861 14.1669C93.7412 13.1055 94.5088 12.2734 95.489 11.6729C96.4691 11.0723 97.5707 10.7709 98.8003 10.7709C100.03 10.7709 101.162 11.0504 102.099 11.6117V11.6095ZM102.211 16.5866C102.211 15.4837 101.901 14.6102 101.279 13.9659C100.656 13.3217 99.8151 13.0007 98.7525 13.0007C97.8071 13.0007 97.0026 13.3064 96.339 13.9157C95.6755 14.5272 95.2591 15.416 95.0943 16.5866H102.213H102.211Z"
       fill="white"
       id="path12"
       style="fill:#2e3192;fill-opacity:1" />
    <path
       d="M23.643 14.3809C24.4236 13.5619 25.4428 13.1513 26.7049 13.1513C27.5679 13.1513 28.3356 13.3807 29.0078 13.8415C29.68 14.3023 30.1159 14.9247 30.3154 15.7087L32.5815 14.3306C32.1673 13.2955 31.4192 12.4416 30.3414 11.7733C29.2615 11.105 28.0515 10.7709 26.707 10.7709C25.7963 10.7709 24.9527 10.915 24.1699 11.1968C23.8251 11.3213 23.4912 11.4698 23.1724 11.6488C22.5457 12.0004 21.9993 12.4372 21.5331 12.957C21.2858 13.2321 21.0625 13.5313 20.863 13.8524L20.2341 14.6932L21.7933 16.7067L23.6473 14.3809H23.643Z"
       fill="white"
       id="path14"
       style="fill:#2e3192;fill-opacity:1" />
    <path
       d="M17.17 18.4625L12.6682 24.2324H15.9795L18.6467 20.6049L17.17 18.4625Z"
       fill="white"
       id="path16"
       style="fill:#2e3192;fill-opacity:1" />
    <path
       d="M16.1313 11.1968H12.9913L17.8704 17.565L17.8617 17.5759L19.3884 19.596L20.8933 21.6576L21.3443 22.2756C21.8344 22.8696 22.4242 23.361 23.1203 23.7454C23.4781 23.9441 23.8554 24.1035 24.2501 24.2346C25.0047 24.4835 25.8222 24.6102 26.7048 24.6102C28.0319 24.6102 29.2311 24.2804 30.3023 23.6209C31.3735 22.9613 32.1325 22.1031 32.5792 21.0504L30.3392 19.6964C30.1397 20.4149 29.6995 21.0133 29.0207 21.4894C28.3398 21.9655 27.5679 22.2035 26.7048 22.2035C25.4102 22.2035 24.1265 21.7995 23.3632 20.9871"
       fill="white"
       id="path18"
       style="fill:#2e3192;fill-opacity:1" />
    <path
       d="M0.808838 0.172527H3.33512C4.36731 0.172527 5.16965 0.469535 5.74213 1.06137C6.31461 1.65538 6.60085 2.49836 6.60085 3.59686C6.60085 4.33064 6.47074 4.96833 6.21269 5.50994C5.95247 6.05154 5.57733 6.46866 5.08725 6.76349C4.59717 7.05613 4.01168 7.20245 3.33512 7.20245H0.808838V0.172527ZM3.2397 6.16947C3.92928 6.16947 4.47357 5.94016 4.87257 5.48155C5.27157 5.02293 5.47107 4.39397 5.47107 3.59686C5.47107 2.79974 5.27808 2.18607 4.89209 1.79515C4.5061 1.40205 3.9553 1.20769 3.2397 1.20769H1.93862V6.17165H3.2397V6.16947Z"
       fill="#FF8700"
       id="path20" />
    <path
       d="M10.8446 0.172527V7.20245H9.71484V0.172527H10.8446Z"
       fill="#FF8700"
       id="path22" />
    <path
       d="M15.6131 6.88578C15.0991 6.58004 14.6958 6.14981 14.4031 5.59511C14.1082 5.0404 13.9607 4.40052 13.9607 3.67329C13.9607 2.94606 14.1212 2.29526 14.4399 1.74055C14.7587 1.18585 15.1946 0.757807 15.7454 0.454248C16.2961 0.150688 16.9033 0 17.569 0C18.2348 0 18.8484 0.155056 19.4166 0.462983C19.9826 0.773095 20.4098 1.20987 20.6938 1.77768L19.7635 2.40882C19.5922 1.98078 19.3103 1.64446 18.9178 1.39987C18.5253 1.15527 18.07 1.03079 17.5495 1.03079C17.0876 1.03079 16.6713 1.1378 16.3005 1.35182C15.9297 1.56584 15.6369 1.87159 15.4223 2.26905C15.2076 2.6687 15.0991 3.13169 15.0991 3.66019C15.0991 4.18869 15.2011 4.68224 15.4027 5.07971C15.6044 5.47936 15.8863 5.78292 16.2484 5.99257C16.6084 6.20223 17.0248 6.30924 17.4931 6.30924C18.07 6.30924 18.5449 6.13889 18.9222 5.79821C19.2995 5.45752 19.5228 5.00983 19.5922 4.45512H17.504V3.4418H20.7242V7.20026H19.6031V6.21533C19.0718 6.96877 18.315 7.3444 17.3327 7.3444C16.6995 7.3444 16.127 7.19153 15.6131 6.88578Z"
       fill="#FF8700"
       id="path24" />
    <path
       d="M25.2216 0.172527V7.20245H24.0918V0.172527H25.2216Z"
       fill="#FF8700"
       id="path26" />
    <path
       d="M33.7307 0.172527V1.23389H31.5189V7.20245H30.3804V1.23389H28.1577V0.172527H33.7329H33.7307Z"
       fill="#FF8700"
       id="path28" />
    <path
       d="M38.1458 0.172527H39.3623L42.164 7.20245H40.9193L40.2731 5.49028H37.2155L36.5498 7.20245H35.3246L38.1458 0.172527ZM39.8827 4.47696L38.753 1.50251L37.6037 4.47696H39.8827Z"
       fill="#FF8700"
       id="path30" />
    <path
       d="M44.9265 0.172527H46.0563V6.14108H49.4456V7.20245H44.9265V0.172527Z"
       fill="#FF8700"
       id="path32" />
    <path
       d="M57.5753 0.172527V7.20245H56.4456V0.172527H57.5753Z"
       fill="#BEEB1A"
       id="path34" />
    <path
       d="M62.8469 0.172527L64.7833 5.85281L66.7198 0.172527H68.4568V7.20245H67.3465V1.3955L65.3992 7.13475H64.1263L62.1985 1.40642V7.20245H61.0883V0.172527H62.8447H62.8469Z"
       fill="#BEEB1A"
       id="path36" />
    <path
       d="M71.9719 0.172527H74.8972C75.3591 0.172527 75.7668 0.259883 76.1181 0.434593C76.4694 0.609304 76.7426 0.860451 76.9399 1.18585C77.1351 1.51125 77.2348 1.88688 77.2348 2.31492C77.2348 2.74296 77.1329 3.13824 76.9312 3.46146C76.7296 3.78685 76.452 4.03363 76.1007 4.20179C75.7494 4.36995 75.3591 4.45512 74.9276 4.45512H73.1039V7.20026H71.9741V0.172527H71.9719ZM74.8864 3.42433C75.2528 3.42433 75.5456 3.32387 75.7646 3.12295C75.9836 2.92204 76.092 2.65342 76.092 2.31492C76.092 1.97641 75.9858 1.71653 75.7733 1.51125C75.5608 1.30815 75.268 1.2055 74.895 1.2055H73.0995V3.42433H74.8842H74.8864Z"
       fill="#BEEB1A"
       id="path38" />
    <path
       d="M81.8666 0.172527H83.0831L85.8848 7.20245H84.6401L83.9939 5.49028H80.9363L80.2706 7.20245H79.0454L81.8666 0.172527ZM83.6036 4.47696L82.4738 1.50251L81.3245 4.47696H83.6036Z"
       fill="#BEEB1A"
       id="path40" />
    <path
       d="M93.5049 0.462983C94.0644 0.773095 94.4872 1.20987 94.7735 1.77768L93.8432 2.40882C93.6719 1.98078 93.3922 1.64446 93.0018 1.39987C92.6115 1.15527 92.167 1.03079 91.6682 1.03079C91.2063 1.03079 90.7856 1.13562 90.4062 1.34746C90.0267 1.55711 89.7274 1.86285 89.5084 2.26032C89.2894 2.65997 89.181 3.1295 89.181 3.67111C89.181 4.21271 89.2894 4.67351 89.5041 5.07316C89.7187 5.47281 90.0158 5.77855 90.391 5.99039C90.7683 6.20441 91.1911 6.31142 91.6595 6.31142C92.1713 6.31142 92.6288 6.18694 93.0278 5.93798C93.4268 5.68901 93.7088 5.34396 93.8736 4.905L94.8038 5.53614C94.5002 6.10395 94.0731 6.54728 93.5223 6.86613C92.9715 7.18497 92.3513 7.3444 91.6617 7.3444C90.9721 7.3444 90.3801 7.19153 89.8293 6.88578C89.2785 6.58004 88.8427 6.14763 88.5239 5.59074C88.2052 5.03385 88.0447 4.3896 88.0447 3.66456C88.0447 2.93951 88.2073 2.28653 88.5348 1.73182C88.86 1.17711 89.3002 0.749072 89.8554 0.44988C90.4105 0.150688 91.0155 0 91.6747 0C92.3339 0 92.952 0.155056 93.5114 0.462983H93.5049Z"
       fill="#BEEB1A"
       id="path42" />
    <path
       d="M102.884 0.172527V1.23389H100.672V7.20245H99.5332V1.23389H97.3105V0.172527H102.886H102.884Z"
       fill="#BEEB1A"
       id="path44" />
    <path
       d="M37.248 11.1968H34.6588V24.2324H37.248V11.1968Z"
       fill="white"
       id="path46"
       style="fill:#2e3192;fill-opacity:1" />
    <path
       d="M46.3339 11.1968H43.7448V24.2324H46.3339V11.1968Z"
       fill="white"
       id="path48"
       style="fill:#2e3192;fill-opacity:1" />
    <path
       d="M44.3931 16.5167H36.1182V18.777H44.3931V16.5167Z"
       fill="white"
       id="path50"
       style="fill:#2e3192;fill-opacity:1" />
  </g>
  <defs
     id="defs57">
    <clipPath
       id="clip0_937_1898">
      <rect
         width="105"
         height="30"
         fill="white"
         id="rect54" />
    </clipPath>
  </defs>
</svg>
