<?xml version="1.0" encoding="UTF-8" standalone="no"?>
<svg
   width="476.07666"
   height="67.848"
   viewBox="0 0 714.115 101.772"
   version="1.1"
   xml:space="preserve"
   style="clip-rule:evenodd;fill-rule:evenodd;stroke-linejoin:round;stroke-miterlimit:2"
   id="svg21"
   sodipodi:docname="knowego.svg"
   inkscape:version="1.1.2 (0a00cf5339, 2022-02-04, custom)"
   xmlns:inkscape="http://www.inkscape.org/namespaces/inkscape"
   xmlns:sodipodi="http://sodipodi.sourceforge.net/DTD/sodipodi-0.dtd"
   xmlns="http://www.w3.org/2000/svg"
   xmlns:svg="http://www.w3.org/2000/svg"><defs
   id="defs25" /><sodipodi:namedview
   id="namedview23"
   pagecolor="#ffffff"
   bordercolor="#666666"
   borderopacity="1.0"
   inkscape:pageshadow="2"
   inkscape:pageopacity="0.0"
   inkscape:pagecheckerboard="0"
   showgrid="false"
   scale-x="1.5"
   fit-margin-top="0"
   fit-margin-left="0"
   fit-margin-right="0"
   fit-margin-bottom="0"
   inkscape:zoom="1.4797203"
   inkscape:cx="161.17911"
   inkscape:cy="50.685255"
   inkscape:window-width="3440"
   inkscape:window-height="1369"
   inkscape:window-x="-8"
   inkscape:window-y="-8"
   inkscape:window-maximized="1"
   inkscape:current-layer="svg21" />
    <g
   id="Logo">
        <path
   d="M 0,99.458 H 20.412 V 68.167 l 11.7,-12.38 27.955,43.671 H 85.675 L 45.892,40.683 82.167,2.317 H 56.683 L 20.412,42.587 V 2.317 H 0 Z"
   id="path2" />
        <path
   d="M 92.558,99.458 H 111.67 V 34.425 h 0.259 l 38.616,65.033 h 20.409 V 2.317 h -19.109 v 65.166 h -0.262 L 112.841,2.317 H 92.558 Z"
   id="path4" />
        <path
   d="m 179.661,51.293 c 0,28.029 16.904,50.479 45.638,50.479 28.729,0 45.633,-22.45 45.633,-50.479 0,-28.841 -16.904,-51.291 -45.633,-51.291 -28.734,0 -45.638,22.45 -45.638,51.291 m 20.413,0 c 0,-17.008 6.891,-33.333 25.225,-33.333 18.329,0 25.216,16.325 25.216,33.333 0,16.192 -6.887,32.517 -25.216,32.517 -18.334,0 -25.225,-16.325 -25.225,-32.517"
   id="path6" />
        <path
   d="M 393.002,2.315 H 372.981 L 357.768,69.252 H 357.51 L 341.652,2.315 H 322.535 L 306.414,68.44 h -0.258 L 291.464,2.315 h -20.412 l 24.57,97.141 h 20.671 l 15.471,-66.121 h 0.263 l 15.733,66.121 h 20.279 z"
   id="path8" />
        <path
   d="m 450.46,99.458 h 70.467 V 81.496 H 470.872 V 57.687 h 44.988 v -16.6 H 470.872 V 20.275 h 49.017 V 2.317 H 450.46 Z"
   id="path10" />
        <path
   d="m 599.978,99.458 h 13 V 46.942 h -39.004 v 15.916 h 20.541 c -1.17,13.471 -8.841,20.954 -22.1,20.954 -18.333,0 -25.22,-16.329 -25.22,-32.52 0,-17.005 6.887,-33.334 25.22,-33.334 9.621,0 17.292,5.584 19.63,16.329 h 19.504 C 609.336,12.246 591.395,0 572.415,0 c -28.733,0 -45.633,22.454 -45.633,51.292 0,28.029 16.9,50.479 45.633,50.479 8.971,0 18.33,-3.671 25.484,-13.334 z"
   id="path12" />
        <path
   d="m 622.844,51.293 c 0,28.029 16.904,50.479 45.637,50.479 28.729,0 45.634,-22.45 45.634,-50.479 0,-28.841 -16.905,-51.291 -45.634,-51.291 -28.733,0 -45.637,22.45 -45.637,51.291 m 20.412,0 c 0,-17.008 6.892,-33.333 25.225,-33.333 18.329,0 25.217,16.325 25.217,33.333 0,16.192 -6.888,32.517 -25.217,32.517 -18.333,0 -25.225,-16.325 -25.225,-32.517"
   id="path14" />
        <path
   d="m 406.116,13.464 c 0,-7.434 5.762,-13.463 12.866,-13.463 7.105,0 12.867,6.029 12.867,13.463 0,7.437 -5.762,13.462 -12.867,13.462 -7.104,0 -12.866,-6.025 -12.866,-13.462"
   style="fill-rule:nonzero"
   id="path16" />
        <path
   d="m 406.116,88.307 c 0,-7.437 5.762,-13.462 12.866,-13.462 7.105,0 12.867,6.025 12.867,13.462 0,7.438 -5.762,13.463 -12.867,13.463 -7.104,0 -12.866,-6.025 -12.866,-13.463"
   style="fill-rule:nonzero"
   id="path18" />
    </g>
</svg>
