<?xml version="1.0" encoding="UTF-8" standalone="no"?>
<svg
   viewBox="2 0 300.05 52.423207"
   version="1.1"
   id="svg27"
   sodipodi:docname="zoonou-logo.svg"
   width="2.089164cm"
   height="0.36500809cm"
   inkscape:version="1.1.2 (0a00cf5339, 2022-02-04, custom)"
   xmlns:inkscape="http://www.inkscape.org/namespaces/inkscape"
   xmlns:sodipodi="http://sodipodi.sourceforge.net/DTD/sodipodi-0.dtd"
   xmlns="http://www.w3.org/2000/svg"
   xmlns:svg="http://www.w3.org/2000/svg">
  <sodipodi:namedview
     id="namedview29"
     pagecolor="#ffffff"
     bordercolor="#666666"
     borderopacity="1.0"
     inkscape:pageshadow="2"
     inkscape:pageopacity="0.0"
     inkscape:pagecheckerboard="0"
     showgrid="false"
     inkscape:zoom="14.106667"
     inkscape:cx="54.619565"
     inkscape:cy="10.704159"
     inkscape:window-width="3440"
     inkscape:window-height="1369"
     inkscape:window-x="-8"
     inkscape:window-y="-8"
     inkscape:window-maximized="1"
     inkscape:current-layer="svg27"
     width="299px"
     scale-x="3.8"
     fit-margin-top="0"
     fit-margin-left="0"
     fit-margin-right="0"
     fit-margin-bottom="0"
     viewbox-x="2"
     units="cm"
     inkscape:document-units="px" />
  <defs
     id="defs23">
    <linearGradient
       id="a"
       x2="300"
       y1="26.5"
       y2="26.5"
       gradientUnits="userSpaceOnUse"
       gradientTransform="translate(2,-0.30848626)">
      <stop
         offset="0"
         stop-color="#55539f"
         id="stop2" />
      <stop
         offset=".07"
         stop-color="#5a6ba6"
         id="stop4" />
      <stop
         offset=".2"
         stop-color="#6291b1"
         id="stop6" />
      <stop
         offset=".32"
         stop-color="#67acb9"
         id="stop8" />
      <stop
         offset=".42"
         stop-color="#6bbcbe"
         id="stop10" />
      <stop
         offset=".5"
         stop-color="#6cc2c0"
         id="stop12" />
      <stop
         offset=".62"
         stop-color="#6ec2ba"
         id="stop14" />
      <stop
         offset=".79"
         stop-color="#74c1aa"
         id="stop16" />
      <stop
         offset=".97"
         stop-color="#7dc08f"
         id="stop18" />
      <stop
         offset="1"
         stop-color="#7ec08b"
         id="stop20" />
    </linearGradient>
  </defs>
  <path
     fill="url(#a)"
     d="m 13.85,44.271514 h 28.09 v 8.07 H 2 v -5.52 L 29.83,8.1115137 H 2.67 V 0.04151374 H 41.61 V 5.5615137 Z m 80.3,-28.5 A 24,24 0 0 0 89.46,7.4615137 21.53,21.53 0 0 0 82,2.0015137 24.4,24.4 0 0 0 72,0.04151374 24,24 0 0 0 62.18,2.0415137 a 21.71,21.71 0 0 0 -7.5,5.46 24.72,24.72 0 0 0 -4.76,8.2900003 31.9,31.9 0 0 0 -1.66,10.48 32.59,32.59 0 0 0 1.6,10.4 24.24,24.24 0 0 0 4.69,8.29 21.46,21.46 0 0 0 7.53,5.46 24.56,24.56 0 0 0 10,2 23.78,23.78 0 0 0 9.77,-2 22,22 0 0 0 7.5,-5.46 24.25,24.25 0 0 0 4.76,-8.27 31.83,31.83 0 0 0 1.65,-10.41 32.6,32.6 0 0 0 -1.61,-10.51 z m -8,18.56 a 16.55,16.55 0 0 1 -3.26,5.72 13.49,13.49 0 0 1 -4.81,3.41 15.54,15.54 0 0 1 -6,1.16 15.93,15.93 0 0 1 -6.08,-1.16 13.34,13.34 0 0 1 -4.84,-3.41 16.79,16.79 0 0 1 -3.28,-5.73 24.44,24.44 0 0 1 -1.23,-8.09 25,25 0 0 1 1.21,-8.13 16.37,16.37 0 0 1 3.27,-5.73 13.51,13.51 0 0 1 4.87,-3.4300003 16.15,16.15 0 0 1 12.12,0 13.63,13.63 0 0 1 4.85,3.4300003 16.51,16.51 0 0 1 3.26,5.73 25,25 0 0 1 1.21,8.13 24.83,24.83 0 0 1 -1.26,8.1 z m 62,-18.56 a 24,24 0 0 0 -4.69,-8.3100003 21.53,21.53 0 0 0 -7.46,-5.46 24.4,24.4 0 0 0 -9.95,-1.99999996 24,24 0 0 0 -9.82,1.99999996 21.71,21.71 0 0 0 -7.5,5.46 24.72,24.72 0 0 0 -4.76,8.2900003 31.9,31.9 0 0 0 -1.66,10.48 32.59,32.59 0 0 0 1.6,10.4 24.24,24.24 0 0 0 4.69,8.29 21.46,21.46 0 0 0 7.53,5.46 24.56,24.56 0 0 0 10,2 23.74,23.74 0 0 0 9.77,-2 22,22 0 0 0 7.5,-5.46 24.25,24.25 0 0 0 4.7,-8.23 31.83,31.83 0 0 0 1.65,-10.41 32.6,32.6 0 0 0 -1.61,-10.51 z m -8,18.56 a 16.55,16.55 0 0 1 -3.26,5.72 13.49,13.49 0 0 1 -4.81,3.41 15.54,15.54 0 0 1 -6,1.16 15.93,15.93 0 0 1 -6.1,-1.16 13.34,13.34 0 0 1 -4.84,-3.41 16.79,16.79 0 0 1 -3.28,-5.73 24.45,24.45 0 0 1 -1.22,-8.09 25,25 0 0 1 1.2,-8.13 16.37,16.37 0 0 1 3.27,-5.73 13.51,13.51 0 0 1 4.84,-3.4300003 16.15,16.15 0 0 1 12.12,0 13.63,13.63 0 0 1 4.85,3.4300003 16.42,16.42 0 0 1 3.26,5.73 25.11,25.11 0 0 1 1.21,8.13 24.88,24.88 0 0 1 -1.22,8.1 z m 57.19,-21.74 a 19.71,19.71 0 0 0 -2.32,-5.0000003 15.11,15.11 0 0 0 -3.91,-4 18.57,18.57 0 0 0 -5.62,-2.60999996 30.19,30.19 0 0 0 -15.18,0.08 18.34,18.34 0 0 0 -5.78,2.83 15.51,15.51 0 0 0 -4,4.33 20,20 0 0 0 -2.24,5.3500003 26.07,26.07 0 0 0 -0.62,3.66 c -0.12,1.28 -0.19,2.52 -0.19,3.7 v 31.41 h 8.55 v -31.57 c 0,-0.87 0.05,-1.79 0.14,-2.73 a 13.27,13.27 0 0 1 0.47,-2.46 11.62,11.62 0 0 1 1.43,-3.18 8.93,8.93 0 0 1 2.25,-2.38 10.36,10.36 0 0 1 3.22,-1.5500003 15.28,15.28 0 0 1 4.46,-0.57 12.61,12.61 0 0 1 7.16,1.79 9.84,9.84 0 0 1 3.8,5.0000003 13.92,13.92 0 0 1 0.68,2.89 23.63,23.63 0 0 1 0.23,3.2 v 31.56 h 8.55 v -31.42 a 35.42,35.42 0 0 0 -0.25,-4.2 23.05,23.05 0 0 0 -0.83,-4.13 z m 54.38,3.18 A 24.15,24.15 0 0 0 247,7.4615137 a 21.47,21.47 0 0 0 -7.51,-5.46 24.36,24.36 0 0 0 -9.94,-1.99999996 24,24 0 0 0 -9.82,1.99999996 21.71,21.71 0 0 0 -7.5,5.46 24.72,24.72 0 0 0 -4.76,8.2900003 31.9,31.9 0 0 0 -1.66,10.48 32.59,32.59 0 0 0 1.6,10.4 24.15,24.15 0 0 0 4.69,8.29 21.46,21.46 0 0 0 7.53,5.46 24.56,24.56 0 0 0 10,2 23.78,23.78 0 0 0 9.77,-2 22,22 0 0 0 7.5,-5.46 24.25,24.25 0 0 0 4.78,-8.23 31.83,31.83 0 0 0 1.65,-10.41 32.87,32.87 0 0 0 -1.61,-10.51 z m -8,18.56 a 16.55,16.55 0 0 1 -3.26,5.72 13.49,13.49 0 0 1 -4.81,3.41 15.54,15.54 0 0 1 -6,1.16 15.89,15.89 0 0 1 -6.1,-1.16 13.34,13.34 0 0 1 -4.84,-3.41 16.63,16.63 0 0 1 -3.28,-5.73 24.44,24.44 0 0 1 -1.23,-8.09 25,25 0 0 1 1.21,-8.13 16.42,16.42 0 0 1 3.26,-5.73 13.63,13.63 0 0 1 4.85,-3.4300003 16.15,16.15 0 0 1 12.12,0 13.63,13.63 0 0 1 4.85,3.4300003 16.51,16.51 0 0 1 3.26,5.73 25,25 0 0 1 1.25,8.13 24.83,24.83 0 0 1 -1.25,8.1 z M 293.45,0.04151374 V 31.611514 c 0,0.87 -0.05,1.79 -0.14,2.73 a 13.27,13.27 0 0 1 -0.47,2.46 11.91,11.91 0 0 1 -1.42,3.18 9.13,9.13 0 0 1 -2.26,2.38 10.36,10.36 0 0 1 -3.22,1.55 15.28,15.28 0 0 1 -4.39,0.57 12.61,12.61 0 0 1 -7.19,-1.79 9.83,9.83 0 0 1 -3.79,-5 13.76,13.76 0 0 1 -0.69,-2.89 23.63,23.63 0 0 1 -0.23,-3.2 V 0.04151374 H 261.1 V 31.461514 a 35.67,35.67 0 0 0 0.25,4.2 23.05,23.05 0 0 0 0.83,4.13 19.71,19.71 0 0 0 2.32,5 15.11,15.11 0 0 0 3.91,4 18.52,18.52 0 0 0 5.59,2.62 30.15,30.15 0 0 0 15.17,-0.08 18.34,18.34 0 0 0 5.83,-2.83 15.38,15.38 0 0 0 4,-4.33 20.12,20.12 0 0 0 2.24,-5.35 26.07,26.07 0 0 0 0.62,-3.66 36.55,36.55 0 0 0 0.19,-3.7 V 0.04151374 Z"
     id="path25"
     style="fill:url(#a)" />
</svg>
